<svg width="25" height="25" viewBox="0 0 25 25" fill="none" xmlns="http://www.w3.org/2000/svg">
<path d="M24.9305 8.97502C24.8519 8.74363 24.7073 8.54032 24.5145 8.39017C24.3217 8.24003 24.0892 8.14963 23.8456 8.13013L16.7203 7.56396L13.637 0.738612C13.5388 0.518781 13.3791 0.332067 13.1771 0.201005C12.9751 0.0699422 12.7395 0.000132331 12.4988 1.87948e-07C12.258 -0.000131955 12.0224 0.0694193 11.8202 0.20026C11.6181 0.331101 11.4582 0.517639 11.3598 0.737362L8.27644 7.56396L1.15113 8.13013C0.911731 8.1491 0.682865 8.23663 0.491911 8.38226C0.300958 8.52789 0.156003 8.72545 0.0743894 8.95131C-0.00722452 9.17717 -0.022042 9.42175 0.0317098 9.65581C0.0854616 9.88986 0.205507 10.1035 0.377483 10.2711L5.64303 15.4042L3.78078 23.4681C3.72424 23.7122 3.74236 23.9676 3.8328 24.2013C3.92324 24.435 4.08182 24.6361 4.28797 24.7785C4.49411 24.9209 4.7383 24.9981 4.98885 25C5.2394 25.0019 5.48474 24.9284 5.69303 24.7892L12.4984 20.2523L19.3037 24.7892C19.5166 24.9305 19.7677 25.0033 20.0232 24.9977C20.2787 24.9921 20.5263 24.9084 20.7328 24.7578C20.9393 24.6073 21.0947 24.3971 21.1782 24.1556C21.2617 23.9141 21.2692 23.6528 21.1997 23.4069L18.9138 15.4079L24.583 10.3061C24.9542 9.97114 25.0905 9.44871 24.9305 8.97502Z" fill="#FED674"/>
</svg>
