<svg width="69" height="69" viewBox="0 0 69 69" fill="none" xmlns="http://www.w3.org/2000/svg">
<circle cx="34.5" cy="34.5" r="34.5" fill="white"/>
<circle cx="34.5" cy="34.5" r="34" stroke="#3E94FE" stroke-opacity="0.2"/>
<rect width="34" height="34" transform="translate(51 51) rotate(-180)" fill="white"/>
<path d="M31.4075 24.0833C31.6192 24.0826 31.8283 24.1293 32.0195 24.22C32.2107 24.3108 32.3792 24.4432 32.5125 24.6075L39.355 33.1075C39.5634 33.361 39.6773 33.679 39.6773 34.0071C39.6773 34.3352 39.5634 34.6532 39.355 34.9067L32.2717 43.4067C32.0312 43.696 31.6857 43.8779 31.3111 43.9125C30.9365 43.947 30.5635 43.8313 30.2742 43.5908C29.9849 43.3504 29.803 43.0048 29.7684 42.6302C29.7339 42.2556 29.8496 41.8827 30.09 41.5933L36.4225 34L30.3025 26.4067C30.1293 26.1987 30.0193 25.9455 29.9854 25.677C29.9516 25.4085 29.9954 25.1359 30.1116 24.8915C30.2279 24.647 30.4117 24.441 30.6414 24.2978C30.871 24.1546 31.1369 24.0802 31.4075 24.0833Z" fill="#3E94FE"/>
</svg>
