<svg width="70" height="70" viewBox="0 0 70 70" fill="none" xmlns="http://www.w3.org/2000/svg">
<circle cx="35" cy="35" r="35" fill="#CAC6C3"/>
<path d="M35.6106 23.8C36.0656 23.8 36.4352 24.1591 36.4352 24.6024V27.9696C36.4352 28.5089 36.8956 28.9561 37.4507 28.9561C38.0193 28.9561 38.4662 28.5089 38.4662 27.9696V24.6024C38.4662 24.1591 38.8358 23.8 39.2921 23.8H43.706C46.6306 23.8 49 26.1019 49 28.943V32.2576C49 32.5207 48.8917 32.7706 48.7021 32.9547C48.5126 33.1389 48.2553 33.2441 47.9845 33.2441C46.9826 33.2441 46.1702 34.0333 46.1702 34.9935C46.1702 35.9602 46.9731 36.7455 47.9656 36.756C48.5248 36.7613 49 37.1401 49 37.6833V41.0571C49 43.8969 46.6306 46.2001 43.706 46.2001H39.2921C38.8358 46.2001 38.4662 45.841 38.4662 45.3977V42.5566C38.4662 42.0042 38.0193 41.5701 37.4507 41.5701C36.8956 41.5701 36.4352 42.0042 36.4352 42.5566V45.3977C36.4352 45.841 36.0656 46.2001 35.6106 46.2001H26.294C23.383 46.2001 21 43.8982 21 41.0571V37.6833C21 37.1401 21.4752 36.7613 22.0344 36.756C23.0282 36.7455 23.8298 35.9602 23.8298 34.9935C23.8298 34.0596 23.0445 33.3493 22.0155 33.3493C21.7447 33.3493 21.4874 33.2441 21.2979 33.0599C21.1083 32.8758 21 32.6259 21 32.3628V28.9561C21 26.1203 23.3884 23.8 26.3075 23.8H35.6106ZM37.4507 31.7841C36.8956 31.7841 36.4352 32.2313 36.4352 32.7706V38.0319C36.4352 38.5712 36.8956 39.0184 37.4507 39.0184C38.0193 39.0184 38.4662 38.5712 38.4662 38.0319V32.7706C38.4662 32.2313 38.0193 31.7841 37.4507 31.7841Z" fill="white"/>
</svg>
