<svg width="25" height="25" viewBox="0 0 25 25" fill="none" xmlns="http://www.w3.org/2000/svg">
<path d="M3.78091 23.4689C3.73809 23.6522 3.73732 23.8429 3.77866 24.0265C3.82 24.2102 3.90237 24.3821 4.01961 24.5294C4.13685 24.6767 4.28591 24.7956 4.45562 24.8771C4.62533 24.9586 4.81128 25.0006 4.99954 25C5.24643 25 5.48781 24.927 5.69322 24.79L12.4988 20.253L19.3044 24.79C19.5173 24.9314 19.7684 25.0041 20.0238 24.9985C20.2793 24.9929 20.527 24.9092 20.7335 24.7587C20.94 24.6081 21.0954 24.3979 21.1789 24.1564C21.2624 23.9149 21.2699 23.6536 21.2004 23.4077L18.9144 15.4084L24.5839 10.3064C24.7654 10.1429 24.8951 9.92981 24.9568 9.69339C25.0186 9.45698 25.0097 9.20765 24.9312 8.97625C24.8527 8.74485 24.7082 8.54152 24.5154 8.39141C24.3226 8.2413 24.09 8.15099 23.8464 8.13166L16.7209 7.56421L13.6374 0.738637C13.5392 0.518799 13.3795 0.332079 13.1775 0.201012C12.9756 0.0699446 12.74 0.000132336 12.4992 1.87955e-07C12.2584 -0.00013196 12.0228 0.0694217 11.8206 0.200267C11.6185 0.331112 11.4586 0.517657 11.3602 0.737387L8.27672 7.56421L1.15117 8.13041C0.911762 8.14937 0.682888 8.23691 0.491928 8.38255C0.300968 8.52818 0.156009 8.72575 0.0743919 8.95161C-0.00722476 9.17748 -0.0220428 9.42207 0.0317109 9.65614C0.0854645 9.8902 0.205513 10.1038 0.377496 10.2714L5.64448 15.4047L3.78091 23.4689ZM12.4988 4.28829L15.051 9.93898L15.786 9.99772H15.7872L20.7517 10.3914L16.6634 14.0711L16.6621 14.0736L16.0834 14.5935L16.2972 15.3397V15.3434L17.8633 20.8242L12.4988 17.2483V4.28829Z" fill="#FED674"/>
</svg>
