<svg width="69" height="69" viewBox="0 0 69 69" fill="none" xmlns="http://www.w3.org/2000/svg">
<circle cx="34.5" cy="34.5" r="34.5" fill="white"/>
<circle cx="34.5" cy="34.5" r="34" stroke="#3E94FE" stroke-opacity="0.2"/>
<rect width="34" height="34" transform="translate(51 51) rotate(-180)" fill="white"/>
<path d="M36.5925 44.4167C36.3809 44.4174 36.1718 44.3707 35.9806 44.28C35.7893 44.1892 35.6209 44.0568 35.4875 43.8925L28.645 35.3925C28.4367 35.139 28.3228 34.821 28.3228 34.4929C28.3228 34.1648 28.4367 33.8468 28.645 33.5933L35.7284 25.0933C35.9688 24.804 36.3144 24.6221 36.689 24.5875C37.0636 24.553 37.4366 24.6687 37.7259 24.9092C38.0152 25.1496 38.1971 25.4952 38.2316 25.8698C38.2662 26.2444 38.1505 26.6173 37.91 26.9067L31.5775 34.5L37.6975 42.0933C37.8708 42.3013 37.9808 42.5545 38.0146 42.823C38.0485 43.0915 38.0047 43.3641 37.8884 43.6085C37.7722 43.853 37.5883 44.059 37.3587 44.2022C37.129 44.3454 36.8632 44.4198 36.5925 44.4167Z" fill="#3E94FE"/>
</svg>