<svg width="18" height="16" viewBox="0 0 18 16" fill="none" xmlns="http://www.w3.org/2000/svg">
<path d="M5.07303 15.9863C6.55074 16.0357 8.02338 15.7885 9.4039 15.2591C10.7844 14.7297 12.0448 13.9289 13.1106 12.9042C14.1764 11.8794 15.0259 10.6513 15.609 9.29261C16.1921 7.9339 16.4969 6.47209 16.5055 4.99357C17.1827 4.15554 17.6855 3.19059 17.9845 2.15545C18.0068 2.07366 18.005 1.98717 17.9793 1.90638C17.9536 1.8256 17.9051 1.75397 17.8396 1.70011C17.7742 1.64626 17.6945 1.61248 17.6103 1.60284C17.5261 1.5932 17.4408 1.60811 17.3649 1.64578C17.0106 1.81632 16.6118 1.87141 16.2245 1.80328C15.8373 1.73516 15.4811 1.54725 15.2063 1.26603C14.8555 0.881866 14.4312 0.572023 13.9584 0.354863C13.4856 0.137703 12.9741 0.0176454 12.4541 0.00180296C11.9341 -0.0140395 11.4162 0.0746559 10.9311 0.262634C10.446 0.450611 10.0036 0.734046 9.63001 1.09615C9.11855 1.59148 8.74392 2.2107 8.54254 2.89363C8.34117 3.57657 8.31989 4.29998 8.48077 4.99357C5.13299 5.19344 2.83451 3.60449 0.995721 1.42593C0.940481 1.36337 0.868219 1.31825 0.787762 1.29608C0.707304 1.27391 0.622131 1.27565 0.542646 1.30109C0.46316 1.32652 0.392801 1.37455 0.34016 1.43932C0.28752 1.50408 0.254877 1.58276 0.246216 1.66577C-0.104082 3.60891 0.14861 5.61271 0.970356 7.40804C1.7921 9.20338 3.14355 10.7043 4.84318 11.7091C3.70357 13.0161 2.1032 13.8324 0.376131 13.9876C0.283604 14.003 0.19819 14.0469 0.131844 14.1132C0.0654969 14.1794 0.0215382 14.2648 0.00611911 14.3573C-0.00929994 14.4499 0.00459264 14.5449 0.0458525 14.6291C0.0871123 14.7133 0.153674 14.7825 0.236223 14.8271C1.73875 15.5779 3.39337 15.9745 5.07303 15.9863Z" fill="#00A8F0"/>
</svg>
